<svg width="174" height="20" viewBox="0 0 174 20" fill="none" xmlns="http://www.w3.org/2000/svg">
<path d="M1.86173 13.211L4.68155 10.6861C5.10615 10.3059 5.10615 9.69172 4.68155 9.31152L1.86173 6.78662C1.17583 6.17246 -3.01121e-07 6.61115 -2.63196e-07 7.47878L-4.24625e-08 12.5286C-4.53727e-09 13.3962 1.17583 13.8251 1.86173 13.211Z" fill="#1E293B"/>
<path d="M13 7.55558C12.4213 7.55558 11.8664 7.81312 11.4572 8.27154C11.0481 8.72997 10.8182 9.35172 10.8182 10C10.8182 10.6483 11.0481 11.2701 11.4572 11.7285C11.8664 12.1869 12.4213 12.4445 13 12.4445C13.5787 12.4445 14.1336 12.1869 14.5428 11.7285C14.9519 11.2701 15.1818 10.6483 15.1818 10C15.1818 9.35172 14.9519 8.72997 14.5428 8.27154C14.1336 7.81312 13.5787 7.55558 13 7.55558ZM13 14.0741C12.0356 14.0741 11.1107 13.6449 10.4287 12.8808C9.74675 12.1168 9.36364 11.0805 9.36364 10C9.36364 8.91952 9.74675 7.88326 10.4287 7.11922C11.1107 6.35518 12.0356 5.92595 13 5.92595C13.9644 5.92595 14.8893 6.35518 15.5713 7.11922C16.2532 7.88326 16.6364 8.91952 16.6364 10C16.6364 11.0805 16.2532 12.1168 15.5713 12.8808C14.8893 13.6449 13.9644 14.0741 13 14.0741ZM13 3.88892C9.36364 3.88892 6.25818 6.42299 5 10C6.25818 13.5771 9.36364 16.1111 13 16.1111C16.6364 16.1111 19.7418 13.5771 21 10C19.7418 6.42299 16.6364 3.88892 13 3.88892Z" fill="#2563EB"/>
<path d="M40.35 8.04C39.67 4.59 36.64 2 33 2C30.11 2 27.6 3.64 26.35 6.04C23.34 6.36 21 8.91 21 12C21 15.31 23.69 18 27 18H40C42.76 18 45 15.76 45 13C45 10.36 42.95 8.22 40.35 8.04ZM31.71 14.29C31.32 14.68 30.69 14.68 30.3 14.29L28.2 12.2C27.81 11.81 27.81 11.18 28.2 10.79C28.59 10.4 29.22 10.4 29.61 10.79L31 12.18L35.48 7.7C35.87 7.31 36.5 7.31 36.89 7.7C37.28 8.09 37.28 8.72 36.89 9.11L31.71 14.29Z" fill="#2563EB"/>
<path d="M53 2.22662V0.487327C53 0.0500746 52.46 -0.163693 52.15 0.147242L49.35 2.85821C49.15 3.05254 49.15 3.35376 49.35 3.5481L52.14 6.25906C52.46 6.56028 53 6.34651 53 5.90926V4.16997C56.31 4.16997 59 6.78376 59 10C59 10.7676 58.85 11.5158 58.56 12.1863C58.41 12.5361 58.52 12.9345 58.79 13.1968C59.3 13.6924 60.16 13.5175 60.43 12.8664C60.8 11.9822 61 11.0105 61 10C61 5.70521 57.42 2.22662 53 2.22662ZM53 15.83C49.69 15.83 47 13.2162 47 10C47 9.23238 47.15 8.48419 47.44 7.81374C47.59 7.46393 47.48 7.06555 47.21 6.8032C46.7 6.30764 45.84 6.48255 45.57 7.13357C45.2 8.01779 45 8.98946 45 10C45 14.2948 48.58 17.7734 53 17.7734V19.5127C53 19.9499 53.54 20.1637 53.85 19.8528L56.64 17.1418C56.84 16.9475 56.84 16.6462 56.64 16.4519L53.85 13.7409C53.54 13.4397 53 13.6535 53 14.0907V15.83Z" fill="#2563EB"/>
<path d="M78.71 5.04128C79.1 4.65128 79.1 4.00128 78.71 3.63128L76.37 1.29128C76 0.901279 75.35 0.901279 74.96 1.29128L73.12 3.12128L76.87 6.87128M61 15.2513V19.0013H64.75L75.81 7.93128L72.06 4.18128L61 15.2513Z" fill="#94A3B8"/>
<path d="M80.0024 17C80.0024 18.1 80.9024 19 82.0024 19H90.0024C91.1024 19 92.0024 18.1 92.0024 17V7C92.0024 5.9 91.1024 5 90.0024 5H82.0024C80.9024 5 80.0024 5.9 80.0024 7V17ZM92.0024 2H89.5024L88.7924 1.29C88.6124 1.11 88.3524 1 88.0924 1H83.9124C83.6524 1 83.3924 1.11 83.2124 1.29L82.5024 2H80.0024C79.4524 2 79.0024 2.45 79.0024 3C79.0024 3.55 79.4524 4 80.0024 4H92.0024C92.5524 4 93.0024 3.55 93.0024 3C93.0024 2.45 92.5524 2 92.0024 2Z" fill="#FF8888"/>
<path d="M95.0024 8C93.9024 8 93.0024 8.9 93.0024 10C93.0024 11.1 93.9024 12 95.0024 12C96.1024 12 97.0024 11.1 97.0024 10C97.0024 8.9 96.1024 8 95.0024 8ZM107.002 8C105.902 8 105.002 8.9 105.002 10C105.002 11.1 105.902 12 107.002 12C108.102 12 109.002 11.1 109.002 10C109.002 8.9 108.102 8 107.002 8ZM101.002 8C99.9024 8 99.0024 8.9 99.0024 10C99.0024 11.1 99.9024 12 101.002 12C102.102 12 103.002 11.1 103.002 10C103.002 8.9 102.102 8 101.002 8Z" fill="#0F172A"/>
<path d="M109.248 6.66552C108.921 6.99218 108.921 7.51885 109.248 7.84552L114.788 13.3855C115.048 13.6455 115.468 13.6455 115.728 13.3855L121.268 7.84552C121.594 7.51885 121.594 6.99218 121.268 6.66552C120.941 6.33885 120.414 6.33885 120.088 6.66552L115.254 11.4922L110.421 6.65885C110.101 6.33885 109.568 6.33885 109.248 6.66552Z" fill="#A8C8FF"/>
<path d="M133.778 13.3345C134.104 13.0078 134.104 12.4811 133.778 12.1545L128.238 6.61448C127.978 6.35448 127.558 6.35448 127.298 6.61448L121.758 12.1545C121.431 12.4811 121.431 13.0078 121.758 13.3345C122.084 13.6611 122.611 13.6611 122.938 13.3345L127.771 8.50782L132.604 13.3411C132.924 13.6611 133.458 13.6611 133.778 13.3345Z" fill="#001D32"/>
<path d="M143.75 9.33796L136.303 9.33038L139.56 6.08036C139.82 5.82063 139.821 5.39396 139.561 5.1337C139.301 4.87343 138.881 4.87301 138.621 5.13274L134.223 9.5216C133.963 9.78133 133.962 10.2013 134.222 10.4616L138.604 14.8661C138.864 15.1263 139.284 15.1268 139.544 14.867C139.805 14.6073 139.805 14.1873 139.545 13.927L136.302 10.6637L143.749 10.6713C144.115 10.6717 144.416 10.372 144.416 10.0053C144.416 9.63864 144.117 9.33834 143.75 9.33796Z" fill="#2563EB"/>
<path d="M145.119 10.6913L152.566 10.651L149.33 13.9219C149.071 14.1833 149.074 14.6099 149.335 14.8685C149.596 15.1271 150.016 15.1248 150.275 14.8634L154.645 10.4464C154.903 10.185 154.901 9.76498 154.639 9.50639L150.229 5.13021C149.968 4.87162 149.548 4.87389 149.289 5.1353C149.03 5.3967 149.033 5.8167 149.294 6.07528L152.558 9.31766L145.112 9.35798C144.745 9.35996 144.447 9.66158 144.449 10.0282C144.451 10.3949 144.752 10.6933 145.119 10.6913Z" fill="#2563EB"/>
<path d="M156.231 18.3314L173.271 10.9124C174.062 10.5653 174.062 9.43456 173.271 9.08742L156.231 1.66842C155.587 1.38078 154.874 1.86679 154.874 2.571L154.864 7.1434C154.864 7.63932 155.226 8.06582 155.714 8.12533L169.512 9.99991L155.714 11.8646C155.226 11.934 154.864 12.3605 154.864 12.8564L154.874 17.4288C154.874 18.133 155.587 18.619 156.231 18.3314Z" fill="#2563EB"/>
</svg>
