<svg width="110" height="20" viewBox="0 0 110 20" fill="none" xmlns="http://www.w3.org/2000/svg">
<path d="M1.86173 13.211L4.68155 10.6861C5.10615 10.3059 5.10615 9.69172 4.68155 9.31152L1.86173 6.78662C1.17583 6.17246 -3.01121e-07 6.61115 -2.63196e-07 7.47878L-4.24625e-08 12.5286C-4.53727e-09 13.3962 1.17583 13.8251 1.86173 13.211Z" fill="#1E293B"/>
<path d="M13 7.55558C12.4213 7.55558 11.8664 7.81312 11.4572 8.27154C11.0481 8.72997 10.8182 9.35172 10.8182 10C10.8182 10.6483 11.0481 11.2701 11.4572 11.7285C11.8664 12.1869 12.4213 12.4445 13 12.4445C13.5787 12.4445 14.1336 12.1869 14.5428 11.7285C14.9519 11.2701 15.1818 10.6483 15.1818 10C15.1818 9.35172 14.9519 8.72997 14.5428 8.27154C14.1336 7.81312 13.5787 7.55558 13 7.55558ZM13 14.0741C12.0356 14.0741 11.1107 13.6449 10.4287 12.8808C9.74675 12.1168 9.36364 11.0805 9.36364 10C9.36364 8.91952 9.74675 7.88326 10.4287 7.11922C11.1107 6.35518 12.0356 5.92595 13 5.92595C13.9644 5.92595 14.8893 6.35518 15.5713 7.11922C16.2532 7.88326 16.6364 8.91952 16.6364 10C16.6364 11.0805 16.2532 12.1168 15.5713 12.8808C14.8893 13.6449 13.9644 14.0741 13 14.0741ZM13 3.88892C9.36364 3.88892 6.25818 6.42299 5 10C6.25818 13.5771 9.36364 16.1111 13 16.1111C16.6364 16.1111 19.7418 13.5771 21 10C19.7418 6.42299 16.6364 3.88892 13 3.88892Z" fill="#2563EB"/>
<path d="M40.35 8.04C39.67 4.59 36.64 2 33 2C30.11 2 27.6 3.64 26.35 6.04C23.34 6.36 21 8.91 21 12C21 15.31 23.69 18 27 18H40C42.76 18 45 15.76 45 13C45 10.36 42.95 8.22 40.35 8.04ZM31.71 14.29C31.32 14.68 30.69 14.68 30.3 14.29L28.2 12.2C27.81 11.81 27.81 11.18 28.2 10.79C28.59 10.4 29.22 10.4 29.61 10.79L31 12.18L35.48 7.7C35.87 7.31 36.5 7.31 36.89 7.7C37.28 8.09 37.28 8.72 36.89 9.11L31.71 14.29Z" fill="#2563EB"/>
<path d="M53 2.22662V0.487327C53 0.0500746 52.46 -0.163693 52.15 0.147242L49.35 2.85821C49.15 3.05254 49.15 3.35376 49.35 3.5481L52.14 6.25906C52.46 6.56028 53 6.34651 53 5.90926V4.16997C56.31 4.16997 59 6.78376 59 10C59 10.7676 58.85 11.5158 58.56 12.1863C58.41 12.5361 58.52 12.9345 58.79 13.1968C59.3 13.6924 60.16 13.5175 60.43 12.8664C60.8 11.9822 61 11.0105 61 10C61 5.70521 57.42 2.22662 53 2.22662ZM53 15.83C49.69 15.83 47 13.2162 47 10C47 9.23238 47.15 8.48419 47.44 7.81374C47.59 7.46393 47.48 7.06555 47.21 6.8032C46.7 6.30764 45.84 6.48255 45.57 7.13357C45.2 8.01779 45 8.98946 45 10C45 14.2948 48.58 17.7734 53 17.7734V19.5127C53 19.9499 53.54 20.1637 53.85 19.8528L56.64 17.1418C56.84 16.9475 56.84 16.6462 56.64 16.4519L53.85 13.7409C53.54 13.4397 53 13.6535 53 14.0907V15.83Z" fill="#2563EB"/>
<path d="M78.71 5.04128C79.1 4.65128 79.1 4.00128 78.71 3.63128L76.37 1.29128C76 0.901279 75.35 0.901279 74.96 1.29128L73.12 3.12128L76.87 6.87128M61 15.2513V19.0013H64.75L75.81 7.93128L72.06 4.18128L61 15.2513Z" fill="#94A3B8"/>
<path d="M80.0024 17C80.0024 18.1 80.9024 19 82.0024 19H90.0024C91.1024 19 92.0024 18.1 92.0024 17V7C92.0024 5.9 91.1024 5 90.0024 5H82.0024C80.9024 5 80.0024 5.9 80.0024 7V17ZM92.0024 2H89.5024L88.7924 1.29C88.6124 1.11 88.3524 1 88.0924 1H83.9124C83.6524 1 83.3924 1.11 83.2124 1.29L82.5024 2H80.0024C79.4524 2 79.0024 2.45 79.0024 3C79.0024 3.55 79.4524 4 80.0024 4H92.0024C92.5524 4 93.0024 3.55 93.0024 3C93.0024 2.45 92.5524 2 92.0024 2Z" fill="#94A3B8"/>
<path d="M95.0024 8C93.9024 8 93.0024 8.9 93.0024 10C93.0024 11.1 93.9024 12 95.0024 12C96.1024 12 97.0024 11.1 97.0024 10C97.0024 8.9 96.1024 8 95.0024 8ZM107.002 8C105.902 8 105.002 8.9 105.002 10C105.002 11.1 105.902 12 107.002 12C108.102 12 109.002 11.1 109.002 10C109.002 8.9 108.102 8 107.002 8ZM101.002 8C99.9024 8 99.0024 8.9 99.0024 10C99.0024 11.1 99.9024 12 101.002 12C102.102 12 103.002 11.1 103.002 10C103.002 8.9 102.102 8 101.002 8Z" fill="#0F172A"/>
</svg>
