<svg width="417" height="208" viewBox="0 0 417 208" fill="none" xmlns="http://www.w3.org/2000/svg">
<rect width="417" height="64" rx="8" fill="#F4F4F5"/>
<rect x="8" y="8" width="48" height="48" rx="24" fill="#E4E4E7"/>
<rect x="64" y="36" width="163" height="10" rx="5" fill="#E4E4E7"/>
<rect x="235" y="36" width="47" height="10" rx="5" fill="#E4E4E7"/>
<rect x="64" y="17" width="132" height="13" rx="6.5" fill="#E4E4E7"/>
<rect y="72" width="417" height="64" rx="8" fill="#F4F4F5"/>
<rect x="8" y="80" width="48" height="48" rx="24" fill="#E4E4E7"/>
<rect x="64" y="108" width="163" height="10" rx="5" fill="#E4E4E7"/>
<rect x="235" y="108" width="47" height="10" rx="5" fill="#E4E4E7"/>
<rect x="64" y="89" width="132" height="13" rx="6.5" fill="#E4E4E7"/>
<rect y="144" width="417" height="64" rx="8" fill="#F4F4F5"/>
<rect x="8" y="152" width="48" height="48" rx="24" fill="#E4E4E7"/>
<rect x="64" y="180" width="163" height="10" rx="5" fill="#E4E4E7"/>
<rect x="235" y="180" width="47" height="10" rx="5" fill="#E4E4E7"/>
<rect x="64" y="161" width="132" height="13" rx="6.5" fill="#E4E4E7"/>
</svg>
