<svg width="154" height="54" viewBox="0 0 154 54" fill="none" xmlns="http://www.w3.org/2000/svg">
<path fill-rule="evenodd" clip-rule="evenodd" d="M34.88 27C34.88 36.6319 27.0719 44.44 17.44 44.44C7.80816 44.44 0 36.6319 0 27C0 17.3682 7.80816 9.56006 17.44 9.56006C27.0719 9.56006 34.88 17.3682 34.88 27ZM3.00636 27C3.00636 34.9715 9.46849 41.4337 17.44 41.4337C25.4115 41.4337 31.8736 34.9715 31.8736 27C31.8736 19.0286 25.4115 12.5664 17.44 12.5664C9.46849 12.5664 3.00636 19.0286 3.00636 27ZM6.97848 18.8605H11.0571L14.4504 28.8503L17.8437 18.8605H21.9222L19.1254 26.4486C19.0549 26.4447 18.9842 26.4427 18.9135 26.4427C17.2351 26.4427 15.6037 27.5667 15.6037 29.2599C15.6037 29.921 15.8647 30.5047 16.2723 30.9629C15.8098 31.4308 15.5003 32.0404 15.4722 32.738H12.0934L6.97848 18.8605ZM16.2055 29.2599C16.2055 28.0542 17.4089 27.076 18.8968 27.0688L18.9135 27.0687C20.409 27.0687 21.6213 28.0498 21.6213 29.2599C21.6213 29.9602 21.2154 30.5837 20.5835 30.9849C21.2935 31.4022 21.7551 32.0787 21.7551 32.8423C21.7551 34.1101 20.4828 35.1378 18.9135 35.1378C17.344 35.1378 16.0718 34.1101 16.0718 32.8423C16.0718 32.8074 16.0728 32.7726 16.0747 32.738C16.1033 32.222 16.3426 31.7503 16.725 31.3779C16.8768 31.2301 17.0509 31.098 17.2433 30.9849C17.0547 30.8651 16.8862 30.7256 16.7427 30.5701C16.4053 30.2046 16.2055 29.7512 16.2055 29.2599ZM18.9135 30.1294C19.375 30.1294 19.7493 29.8491 19.7493 29.5034C19.7493 29.1576 19.375 28.8773 18.9135 28.8773C18.4519 28.8773 18.0777 29.1576 18.0777 29.5034C18.0777 29.8491 18.4519 30.1294 18.9135 30.1294ZM18.9469 33.3292C19.4639 33.3292 19.883 33.0178 19.883 32.6336C19.883 32.2495 19.4639 31.938 18.9469 31.938C18.4299 31.938 18.0108 32.2495 18.0108 32.6336C18.0108 33.0178 18.4299 33.3292 18.9469 33.3292ZM26.7348 30.9849C27.3667 30.5837 27.7727 29.9602 27.7727 29.2599C27.7727 28.0498 26.5603 27.0687 25.0648 27.0687C23.5692 27.0687 22.3568 28.0498 22.3568 29.2599C22.3568 29.9602 22.7628 30.5837 23.3947 30.9849C22.6847 31.4022 22.2231 32.0787 22.2231 32.8423C22.2231 34.1101 23.4953 35.1378 25.0648 35.1378C26.6342 35.1378 27.9065 34.1101 27.9065 32.8423C27.9065 32.0787 27.4449 31.4022 26.7348 30.9849ZM25.0648 30.1294C25.5264 30.1294 25.9006 29.8491 25.9006 29.5034C25.9006 29.1576 25.5264 28.8773 25.0648 28.8773C24.6032 28.8773 24.229 29.1576 24.229 29.5034C24.229 29.8491 24.6032 30.1294 25.0648 30.1294ZM25.0982 33.3292C25.6152 33.3292 26.0343 33.0178 26.0343 32.6336C26.0343 32.2495 25.6152 31.938 25.0982 31.938C24.5812 31.938 24.1621 32.2495 24.1621 32.6336C24.1621 33.0178 24.5812 33.3292 25.0982 33.3292Z" fill="#338CFB"/>
<path d="M40.6199 35V21H46.8199C47.7932 21 48.6066 21.14 49.2599 21.42C49.9265 21.6867 50.4332 22.08 50.7799 22.6C51.1266 23.1067 51.2999 23.7267 51.2999 24.46C51.2999 25.2467 51.0999 25.9067 50.6999 26.44C50.3132 26.9733 49.7532 27.3467 49.0199 27.56L48.9999 27.14C49.5999 27.2867 50.1265 27.5333 50.5799 27.88C51.0465 28.2133 51.4065 28.6267 51.6599 29.12C51.9132 29.6 52.0399 30.1467 52.0399 30.76C52.0399 31.4667 51.9132 32.0867 51.6599 32.62C51.4199 33.1533 51.0732 33.6 50.6199 33.96C50.1799 34.3067 49.6532 34.5667 49.0399 34.74C48.4399 34.9133 47.7732 35 47.0399 35H40.6199ZM43.8599 32.14H46.8999C47.4599 32.14 47.8932 32.0067 48.1999 31.74C48.5199 31.4733 48.6799 31.0933 48.6799 30.6C48.6799 30.2933 48.5999 30.0333 48.4399 29.82C48.2932 29.6067 48.0799 29.4467 47.7999 29.34C47.5199 29.2333 47.1865 29.18 46.7999 29.18H43.8599V32.14ZM43.8599 26.6H46.3599C46.7065 26.6 46.9999 26.5467 47.2399 26.44C47.4799 26.32 47.6599 26.16 47.7799 25.96C47.9132 25.7467 47.9799 25.5 47.9799 25.22C47.9799 24.7933 47.8332 24.46 47.5399 24.22C47.2465 23.98 46.8065 23.86 46.2199 23.86H43.8599V26.6ZM59.7088 35.2C58.6155 35.2 57.6355 34.9667 56.7688 34.5C55.9021 34.02 55.2221 33.3667 54.7288 32.54C54.2355 31.7 53.9888 30.7533 53.9888 29.7C53.9888 28.62 54.2355 27.6667 54.7288 26.84C55.2221 26 55.9021 25.3467 56.7688 24.88C57.6355 24.4 58.6155 24.16 59.7088 24.16C60.8155 24.16 61.7955 24.4 62.6488 24.88C63.5155 25.3467 64.1955 26 64.6888 26.84C65.1821 27.6667 65.4288 28.62 65.4288 29.7C65.4288 30.7533 65.1821 31.7 64.6888 32.54C64.1955 33.3667 63.5155 34.02 62.6488 34.5C61.7955 34.9667 60.8155 35.2 59.7088 35.2ZM59.7088 32.44C60.1888 32.44 60.6088 32.32 60.9688 32.08C61.3421 31.84 61.6355 31.5133 61.8488 31.1C62.0621 30.6867 62.1621 30.22 62.1488 29.7C62.1621 29.1533 62.0621 28.6733 61.8488 28.26C61.6355 27.8333 61.3421 27.5067 60.9688 27.28C60.6088 27.04 60.1888 26.92 59.7088 26.92C59.2421 26.92 58.8221 27.04 58.4488 27.28C58.0755 27.52 57.7821 27.8467 57.5688 28.26C57.3555 28.6733 57.2488 29.1533 57.2488 29.7C57.2488 30.22 57.3555 30.6867 57.5688 31.1C57.7821 31.5133 58.0755 31.84 58.4488 32.08C58.8221 32.32 59.2421 32.44 59.7088 32.44ZM72.9268 35.2C71.8334 35.2 70.8534 34.9667 69.9868 34.5C69.1201 34.02 68.4401 33.3667 67.9468 32.54C67.4534 31.7 67.2068 30.7533 67.2068 29.7C67.2068 28.62 67.4534 27.6667 67.9468 26.84C68.4401 26 69.1201 25.3467 69.9868 24.88C70.8534 24.4 71.8334 24.16 72.9268 24.16C74.0334 24.16 75.0134 24.4 75.8668 24.88C76.7334 25.3467 77.4134 26 77.9068 26.84C78.4001 27.6667 78.6468 28.62 78.6468 29.7C78.6468 30.7533 78.4001 31.7 77.9068 32.54C77.4134 33.3667 76.7334 34.02 75.8668 34.5C75.0134 34.9667 74.0334 35.2 72.9268 35.2ZM72.9268 32.44C73.4068 32.44 73.8268 32.32 74.1868 32.08C74.5601 31.84 74.8534 31.5133 75.0668 31.1C75.2801 30.6867 75.3801 30.22 75.3668 29.7C75.3801 29.1533 75.2801 28.6733 75.0668 28.26C74.8534 27.8333 74.5601 27.5067 74.1868 27.28C73.8268 27.04 73.4068 26.92 72.9268 26.92C72.4601 26.92 72.0401 27.04 71.6668 27.28C71.2934 27.52 71.0001 27.8467 70.7868 28.26C70.5734 28.6733 70.4668 29.1533 70.4668 29.7C70.4668 30.22 70.5734 30.6867 70.7868 31.1C71.0001 31.5133 71.2934 31.84 71.6668 32.08C72.0401 32.32 72.4601 32.44 72.9268 32.44ZM81.1447 35V24.38H84.2047L84.3047 26.3L83.8647 26.34C84.0114 25.9933 84.2114 25.6867 84.4647 25.42C84.7181 25.1533 84.9981 24.9333 85.3047 24.76C85.6247 24.5733 85.9581 24.4333 86.3047 24.34C86.6514 24.2333 86.9981 24.18 87.3447 24.18C87.8781 24.18 88.3514 24.26 88.7647 24.42C89.1914 24.58 89.5581 24.84 89.8647 25.2C90.1847 25.56 90.4381 26.04 90.6247 26.64L90.1447 26.56L90.2847 26.28C90.4714 25.96 90.6981 25.6733 90.9647 25.42C91.2447 25.1533 91.5514 24.9267 91.8847 24.74C92.2181 24.5533 92.5581 24.4133 92.9047 24.32C93.2647 24.2267 93.6114 24.18 93.9447 24.18C94.7847 24.18 95.4847 24.3467 96.0447 24.68C96.6047 25.0133 97.0247 25.5067 97.3047 26.16C97.5847 26.8 97.7247 27.5933 97.7247 28.54V35H94.5047V28.78C94.5047 28.1533 94.3714 27.6867 94.1047 27.38C93.8514 27.06 93.4647 26.9 92.9447 26.9C92.6647 26.9 92.4047 26.9467 92.1647 27.04C91.9381 27.12 91.7381 27.2467 91.5647 27.42C91.4047 27.58 91.2781 27.7667 91.1847 27.98C91.0914 28.1933 91.0447 28.4333 91.0447 28.7V35H87.8247V28.76C87.8247 28.16 87.6847 27.7 87.4047 27.38C87.1381 27.06 86.7581 26.9 86.2647 26.9C85.9981 26.9 85.7447 26.9467 85.5047 27.04C85.2781 27.12 85.0781 27.2467 84.9047 27.42C84.7447 27.58 84.6181 27.7667 84.5247 27.98C84.4314 28.1933 84.3847 28.4333 84.3847 28.7V35H81.1447Z" fill="#0F54AB"/>
<path d="M105.128 35V28.02L105.268 29L99.608 21H102.208L106.528 27.2L106.028 27.14L109.928 21H112.408L106.988 29.22L107.288 27.86V35H105.128ZM117.775 35.2C116.695 35.2 115.735 34.9733 114.895 34.52C114.068 34.0533 113.415 33.42 112.935 32.62C112.468 31.82 112.235 30.9 112.235 29.86C112.235 29.0333 112.368 28.28 112.635 27.6C112.901 26.92 113.268 26.3333 113.735 25.84C114.215 25.3333 114.781 24.9467 115.435 24.68C116.101 24.4 116.821 24.26 117.595 24.26C118.275 24.26 118.908 24.3933 119.495 24.66C120.081 24.9133 120.588 25.2667 121.015 25.72C121.455 26.1733 121.788 26.7133 122.015 27.34C122.255 27.9533 122.368 28.6267 122.355 29.36L122.335 30.24H113.755L113.295 28.6H120.555L120.255 28.94V28.46C120.215 28.02 120.068 27.6267 119.815 27.28C119.561 26.9333 119.241 26.66 118.855 26.46C118.468 26.26 118.048 26.16 117.595 26.16C116.875 26.16 116.268 26.3 115.775 26.58C115.281 26.8467 114.908 27.2467 114.655 27.78C114.401 28.3 114.275 28.9467 114.275 29.72C114.275 30.4533 114.428 31.0933 114.735 31.64C115.041 32.1733 115.475 32.5867 116.035 32.88C116.595 33.1733 117.241 33.32 117.975 33.32C118.495 33.32 118.975 33.2333 119.415 33.06C119.868 32.8867 120.355 32.5733 120.875 32.12L121.915 33.58C121.595 33.9 121.201 34.18 120.735 34.42C120.281 34.66 119.795 34.8533 119.275 35C118.768 35.1333 118.268 35.2 117.775 35.2ZM131.238 35V28.16C131.238 27.5733 131.025 27.1 130.598 26.74C130.185 26.3667 129.658 26.18 129.018 26.18C128.432 26.18 127.898 26.3 127.418 26.54C126.952 26.78 126.525 27.1467 126.138 27.64L124.798 26.3C125.425 25.62 126.098 25.1133 126.818 24.78C127.552 24.4467 128.338 24.28 129.178 24.28C129.978 24.28 130.672 24.4133 131.258 24.68C131.845 24.9467 132.298 25.34 132.618 25.86C132.938 26.3667 133.098 26.9867 133.098 27.72V35H131.238ZM128.098 35.2C127.418 35.2 126.812 35.0667 126.278 34.8C125.745 34.5333 125.318 34.1667 124.998 33.7C124.692 33.22 124.538 32.66 124.538 32.02C124.538 31.46 124.638 30.9667 124.838 30.54C125.038 30.1133 125.332 29.76 125.718 29.48C126.118 29.2 126.612 28.9867 127.198 28.84C127.798 28.6933 128.485 28.62 129.258 28.62H132.178L131.998 30.26H128.998C128.598 30.26 128.238 30.3 127.918 30.38C127.612 30.4467 127.345 30.56 127.118 30.72C126.905 30.8667 126.745 31.0467 126.638 31.26C126.532 31.46 126.478 31.7 126.478 31.98C126.478 32.2733 126.552 32.5333 126.698 32.76C126.845 32.9733 127.045 33.14 127.298 33.26C127.552 33.38 127.845 33.44 128.178 33.44C128.658 33.44 129.112 33.36 129.538 33.2C129.978 33.0267 130.365 32.7933 130.698 32.5C131.045 32.2067 131.312 31.88 131.498 31.52L131.978 32.86C131.698 33.3267 131.352 33.7333 130.938 34.08C130.525 34.4267 130.078 34.7 129.598 34.9C129.118 35.1 128.618 35.2 128.098 35.2ZM136.127 35V20.2H138.187V26.66L137.827 26.9C137.96 26.4333 138.22 26.0067 138.607 25.62C138.994 25.22 139.454 24.9 139.987 24.66C140.52 24.4067 141.067 24.28 141.627 24.28C142.427 24.28 143.094 24.44 143.627 24.76C144.16 25.0667 144.56 25.54 144.827 26.18C145.094 26.82 145.227 27.6267 145.227 28.6V35H143.167V28.74C143.167 28.14 143.087 27.6467 142.927 27.26C142.767 26.86 142.52 26.5733 142.187 26.4C141.854 26.2133 141.44 26.1333 140.947 26.16C140.547 26.16 140.18 26.2267 139.847 26.36C139.514 26.48 139.22 26.6533 138.967 26.88C138.727 27.1067 138.534 27.3733 138.387 27.68C138.254 27.9733 138.187 28.2933 138.187 28.64V35H137.167C136.994 35 136.82 35 136.647 35C136.474 35 136.3 35 136.127 35Z" fill="#85A8D3"/>
</svg>
