<svg width="65" height="24" viewBox="0 0 65 24" fill="none" xmlns="http://www.w3.org/2000/svg">
<g clip-path="url(#clip0_930_117993)">
<path d="M9.74981 5.90255V5.91755C9.74981 6.42005 10.0873 6.84005 10.5598 6.99005C12.6973 7.65755 14.2498 9.64505 14.2498 12.0001C14.2498 12.3901 14.2048 12.7576 14.1223 13.1176C14.0173 13.5976 14.2123 14.0926 14.6398 14.3476L14.6473 14.3551C15.2923 14.7301 16.1323 14.3926 16.3048 13.6726C16.4323 13.1326 16.4998 12.5701 16.4998 12.0001C16.4998 8.62505 14.2648 5.76005 11.1898 4.82255C10.4773 4.60505 9.74981 5.15255 9.74981 5.90255V5.90255ZM8.20481 17.1901C5.96231 16.8676 4.13981 15.0451 3.80981 12.8101C3.40481 10.1101 5.05481 7.73255 7.43231 6.99005C7.91231 6.84755 8.24981 6.42005 8.24981 5.91755V5.90255C8.24981 5.15255 7.52231 4.60505 6.80231 4.82255C3.41981 5.85755 1.05731 9.21755 1.56731 13.0426C2.00981 16.3276 4.66481 18.9826 7.94981 19.4251C10.3048 19.7401 12.4798 18.9676 14.0473 17.5276C14.6023 17.0176 14.5048 16.1101 13.8523 15.7351C13.4173 15.4801 12.8773 15.5626 12.5023 15.9001C11.3998 16.9051 9.86981 17.4376 8.20481 17.1901V17.1901Z" fill="#C6D0DD"/>
</g>
<g clip-path="url(#clip1_930_117993)">
<rect x="41" width="24" height="24" rx="10" fill="#DBEAFE"/>
<path d="M49.7101 11.71L52.3001 14.3C52.6901 14.69 53.3201 14.69 53.7101 14.3L56.3001 11.71C56.9301 11.08 56.4801 10 55.5901 10H50.4101C49.5201 10 49.0801 11.08 49.7101 11.71Z" fill="black"/>
</g>
<defs>
<clipPath id="clip0_930_117993">
<rect width="18" height="18" fill="white" transform="translate(0 3)"/>
</clipPath>
<clipPath id="clip1_930_117993">
<rect x="41" width="24" height="24" rx="10" fill="white"/>
</clipPath>
</defs>
</svg>
