<svg width="102" height="24" viewBox="0 0 102 24" fill="none" xmlns="http://www.w3.org/2000/svg">
<g clip-path="url(#clip0_968_118039)">
<path d="M20 6L4 6C3.45 6 3 6.45 3 7C3 7.55 3.45 8 4 8L20 8C20.55 8 21 7.55 21 7C21 6.45 20.55 6 20 6ZM20 11L4 11C3.45 11 3 11.45 3 12C3 12.55 3.45 13 4 13L20 13C20.55 13 21 12.55 21 12C21 11.45 20.55 11 20 11ZM21 17C21 16.45 20.55 16 20 16L4 16C3.45 16 3 16.45 3 17C3 17.55 3.45 18 4 18L20 18C20.55 18 21 17.55 21 17Z" fill="#001D32"/>
</g>
<g clip-path="url(#clip1_968_118039)">
<path d="M57.1935 12.1933L55.4668 10.4666C55.2068 10.2066 54.7868 10.2066 54.5268 10.4666L52.8001 12.1933C52.3801 12.6133 52.6801 13.3333 53.2735 13.3333L56.7268 13.3333C57.3201 13.3333 57.6135 12.6133 57.1935 12.1933Z" fill="#2563EB"/>
</g>
<g clip-path="url(#clip2_968_118039)">
<path d="M97.9998 9.33341H97.3332V8.00008C97.3332 6.16008 95.8398 4.66675 93.9998 4.66675C92.1598 4.66675 90.6665 6.16008 90.6665 8.00008V9.33341H89.9998C89.2665 9.33341 88.6665 9.93341 88.6665 10.6667V17.3334C88.6665 18.0667 89.2665 18.6667 89.9998 18.6667H97.9998C98.7332 18.6667 99.3332 18.0667 99.3332 17.3334V10.6667C99.3332 9.93341 98.7332 9.33341 97.9998 9.33341ZM91.9998 8.00008C91.9998 6.89341 92.8932 6.00008 93.9998 6.00008C95.1065 6.00008 95.9998 6.89341 95.9998 8.00008V9.33341H91.9998V8.00008ZM97.3332 17.3334H90.6665C90.2998 17.3334 89.9998 17.0334 89.9998 16.6667V11.3334C89.9998 10.9667 90.2998 10.6667 90.6665 10.6667H97.3332C97.6998 10.6667 97.9998 10.9667 97.9998 11.3334V16.6667C97.9998 17.0334 97.6998 17.3334 97.3332 17.3334ZM93.9998 15.3334C94.7332 15.3334 95.3332 14.7334 95.3332 14.0001C95.3332 13.2667 94.7332 12.6667 93.9998 12.6667C93.2665 12.6667 92.6665 13.2667 92.6665 14.0001C92.6665 14.7334 93.2665 15.3334 93.9998 15.3334Z" fill="#2563EB"/>
</g>
<defs>
<clipPath id="clip0_968_118039">
<rect width="24" height="24" fill="white" transform="translate(24 24) rotate(-180)"/>
</clipPath>
<clipPath id="clip1_968_118039">
<rect width="16" height="16" fill="white" transform="translate(63 20) rotate(-180)"/>
</clipPath>
<clipPath id="clip2_968_118039">
<rect width="16" height="16" fill="white" transform="translate(86 4)"/>
</clipPath>
</defs>
</svg>
