<svg width="83" height="18" viewBox="0 0 83 18" fill="none" xmlns="http://www.w3.org/2000/svg">
<path d="M16 16V2H2V16H16ZM16 0C16.5304 0 17.0391 0.210714 17.4142 0.585786C17.7893 0.960859 18 1.46957 18 2V16C18 16.5304 17.7893 17.0391 17.4142 17.4142C17.0391 17.7893 16.5304 18 16 18H2C1.46957 18 0.960859 17.7893 0.585786 17.4142C0.210714 17.0391 0 16.5304 0 16V2C0 0.89 0.9 0 2 0H16ZM8 4H10V8H14V10H10V14H8V10H4V8H8V4Z" fill="#2563EB"/>
<path d="M41.2965 8.41386L43.8865 11.0039C44.2765 11.3939 44.9065 11.3939 45.2965 11.0039L47.8865 8.41386C48.5165 7.78386 48.0665 6.70386 47.1765 6.70386L41.9965 6.70386C41.1065 6.70386 40.6665 7.78386 41.2965 8.41386Z" fill="black"/>
<path d="M82.1807 4.60786L81.0728 3.5L76.6807 7.89214L72.2885 3.5L71.1807 4.60786L75.5728 9L71.1807 13.3921L72.2885 14.5L76.6807 10.1079L81.0728 14.5L82.1807 13.3921L77.7885 9L82.1807 4.60786Z" fill="#94A3B8"/>
</svg>
