<svg width="118" height="24" viewBox="0 0 118 24" fill="none" xmlns="http://www.w3.org/2000/svg">
<g clip-path="url(#clip0_953_118010)">
<path d="M20 6L4 6C3.45 6 3 6.45 3 7C3 7.55 3.45 8 4 8L20 8C20.55 8 21 7.55 21 7C21 6.45 20.55 6 20 6ZM20 11L4 11C3.45 11 3 11.45 3 12C3 12.55 3.45 13 4 13L20 13C20.55 13 21 12.55 21 12C21 11.45 20.55 11 20 11ZM21 17C21 16.45 20.55 16 20 16L4 16C3.45 16 3 16.45 3 17C3 17.55 3.45 18 4 18L20 18C20.55 18 21 17.55 21 17Z" fill="white"/>
</g>
<g clip-path="url(#clip1_953_118010)">
<path d="M53 4L53 20C53 20.55 53.45 21 54 21C54.55 21 55 20.55 55 20L55 4C55 3.45 54.55 3 54 3C53.45 3 53 3.45 53 4ZM58 4L58 20C58 20.55 58.45 21 59 21C59.55 21 60 20.55 60 20L60 4C60 3.45 59.55 3 59 3C58.45 3 58 3.45 58 4ZM64 3C63.45 3 63 3.45 63 4L63 20C63 20.55 63.45 21 64 21C64.55 21 65 20.55 65 20L65 4C65 3.45 64.55 3 64 3Z" fill="white"/>
</g>
<path d="M109.5 14.6667H103.667V13H109.5V14.6667ZM112 11.3333H103.667V9.66667H112V11.3333ZM112 8H103.667V6.33333H112V8ZM98.6667 6.33333V19.6667H112V21.3333H98.6667C98.2246 21.3333 97.8007 21.1577 97.4882 20.8452C97.1756 20.5326 97 20.1087 97 19.6667V6.33333H98.6667ZM113.667 3C114.109 3 114.533 3.17559 114.845 3.48816C115.158 3.80072 115.333 4.22464 115.333 4.66667V16.3333C115.333 17.2583 114.592 18 113.667 18H102C101.558 18 101.134 17.8244 100.821 17.5118C100.509 17.1993 100.333 16.7754 100.333 16.3333V4.66667C100.333 3.74167 101.075 3 102 3H113.667ZM102 4.66667V16.3333H113.667V4.66667H102Z" fill="#2563EB"/>
<defs>
<clipPath id="clip0_953_118010">
<rect width="24" height="24" fill="white" transform="translate(24 24) rotate(-180)"/>
</clipPath>
<clipPath id="clip1_953_118010">
<rect width="24" height="24" fill="white" transform="translate(71) rotate(90)"/>
</clipPath>
</defs>
</svg>
